<svg width="70" height="39" viewBox="0 0 70 39" fill="none" xmlns="http://www.w3.org/2000/svg">
<path d="M24.6796 6.46338C23.7899 7.87305 23.065 9.42369 22.5378 11.0801H5.37086C1.318 10.6924 0 6.46338 0 6.46338H24.6796Z" fill="#48494D"/>
<path d="M21.9374 24.0067H11.8105C7.72656 23.619 6.39844 19.39 6.39844 19.39H21.0078C21.1074 21.0111 21.4394 22.5618 21.9374 24.0067Z" fill="#48494D"/>
<path d="M25.5937 28.6234H17.4561C13.2505 28.3133 11.8828 24.9301 11.8828 24.9301H22.79C23.508 26.2551 24.4312 27.5239 25.5937 28.6234Z" fill="#48494D"/>
<path d="M21.434 17.2967C21.434 17.3672 21.434 17.4729 21.434 17.5434H8.21216C4.08451 17.1558 2.74219 12.9268 2.74219 12.9268H21.9374C21.6018 14.3012 21.434 15.7813 21.434 17.2967Z" fill="#48494D"/>
<path d="M47.6783 8.58463C46.1417 6.00717 44.1271 4.6167 42.0101 4.6167C40.7467 4.6167 39.5174 5.12541 38.3906 6.10891C39.1418 6.75328 39.8247 7.56721 40.4394 8.58463C42.1125 11.3317 43.0345 14.9944 43.0345 18.9284C43.0345 22.8624 42.1125 26.5251 40.4394 29.2721C39.8247 30.2895 39.1418 31.1374 38.3906 31.7478C39.5174 32.7314 40.7467 33.2401 42.0101 33.2401C44.093 33.2401 46.1076 31.8157 47.6783 29.2721C49.3514 26.5251 50.2734 22.8624 50.2734 18.9284C50.2734 14.9944 49.3514 11.3317 47.6783 8.58463Z" fill="#FF7931"/>
<path d="M42.0468 0C35.4748 0 30.1641 8.48044 30.1641 18.9283C30.1641 29.3762 35.508 37.8567 42.0468 37.8567C48.6187 37.8567 53.9294 29.3762 53.9294 18.9283C53.9626 8.48044 48.6187 0 42.0468 0ZM47.6894 29.1388C46.1957 31.7168 44.2374 33.1076 42.1795 33.1076C40.1548 33.1076 38.1965 31.6829 36.6697 29.1388C35.0433 26.3911 34.1471 22.7276 34.1471 18.7927C34.1471 14.8577 35.0433 11.1942 36.6697 8.44652C38.1633 5.86847 40.1216 4.47767 42.1795 4.47767C44.2042 4.47767 46.1625 5.90239 47.6894 8.44652C49.3158 11.1942 50.2119 14.8577 50.2119 18.7927C50.2119 22.6937 49.3158 26.3911 47.6894 29.1388Z" fill="#48494D"/>
<path d="M30.8248 18.9283C30.8248 8.65005 36.2147 0.271374 42.9609 0C42.8565 0 42.7522 0 42.6131 0C35.7279 0 30.1641 8.48044 30.1641 18.9283C30.1641 29.3762 35.7627 37.8567 42.6131 37.8567C42.7174 37.8567 42.8218 37.8567 42.9609 37.8567C36.2147 37.5853 30.8248 29.2066 30.8248 18.9283Z" fill="#FF7931"/>
<path d="M41.8979 34.0263H41.5999C41.5668 34.0263 41.5006 34.0263 41.4675 34.0263L41.3351 33.992L41.2027 33.9577H41.1365C41.1033 33.9577 41.1033 33.9577 41.0702 33.9577L40.7723 33.8892C40.7392 33.8892 40.673 33.8549 40.6399 33.8549L40.5075 33.8206L40.375 33.7863C40.3419 33.7863 40.2757 33.7521 40.2426 33.7178L39.9778 33.615L39.713 33.4779C39.6798 33.4436 39.6136 33.4436 39.5805 33.4093L39.4481 33.3407C39.3819 33.3065 39.2826 33.2379 39.2164 33.2036L38.9846 33.0323L38.8522 32.9637L38.7529 32.8609L38.5212 32.6895C38.455 32.6209 38.3888 32.5524 38.3226 32.4838C38.1901 32.3467 38.0577 32.2096 37.9253 32.0725C37.3956 31.5241 36.9322 30.9071 36.5349 30.2558C36.1376 29.6046 35.8066 28.919 35.5086 28.2335C35.2107 27.5137 34.979 26.7939 34.7472 26.074C34.6479 25.697 34.5486 25.3542 34.4493 24.9772L34.3169 24.4288C34.2838 24.2574 34.2507 24.0517 34.2176 23.8803C34.0851 23.1262 33.9858 22.3721 33.9196 21.618C33.8534 20.864 33.8203 20.1099 33.8203 19.3215C33.8203 18.5674 33.8534 17.8133 33.9196 17.0249C33.9858 16.2708 34.0851 15.5168 34.2176 14.7627C34.2507 14.5913 34.2838 14.3856 34.3169 14.2142L34.4493 13.6658C34.5486 13.2888 34.6148 12.9117 34.7472 12.5689C34.9459 11.8491 35.2107 11.1293 35.5086 10.4095C35.8066 9.72396 36.1376 9.03842 36.5349 8.38716C36.9322 7.7359 37.3956 7.11892 37.9253 6.57048C38.0577 6.43338 38.1901 6.29627 38.3226 6.15916C38.3888 6.09061 38.455 6.02205 38.5212 5.9535L38.7529 5.78211L38.8522 5.67928L38.9846 5.61073L39.2164 5.43935C39.2826 5.40507 39.3819 5.33651 39.4481 5.30224L39.5805 5.23368C39.6136 5.19941 39.6798 5.19941 39.713 5.16513L39.9778 5.02802L40.2426 4.92519C40.2757 4.89092 40.3419 4.89092 40.375 4.85664L40.5075 4.82236L40.6399 4.78808C40.673 4.78808 40.7392 4.75381 40.7723 4.75381L41.0702 4.68525C41.1033 4.68525 41.1033 4.68525 41.1365 4.68525H41.2027L41.3351 4.65098L41.4675 4.6167C41.5006 4.6167 41.5668 4.6167 41.5999 4.6167H41.8979H42.1958C42.2289 4.6167 42.2951 4.6167 42.3282 4.6167L42.4606 4.65098L42.5931 4.68525H42.6593C42.6924 4.68525 42.6924 4.68525 42.7255 4.68525L43.0234 4.75381C43.0565 4.75381 43.1227 4.78808 43.1558 4.78808L43.2883 4.82236L43.4207 4.85664C43.4538 4.85664 43.52 4.89092 43.5531 4.89092L43.8179 4.99374L44.0828 5.13085C44.1159 5.16513 44.1821 5.16513 44.2152 5.19941L44.3476 5.26796C44.4469 5.30224 44.5131 5.37079 44.6124 5.40507L44.8442 5.57645L44.9766 5.64501L45.0759 5.74784L45.3076 5.91922C45.3739 5.98778 45.4401 6.05633 45.5394 6.12488C45.7049 6.26199 45.8373 6.3991 45.9697 6.53621C46.5325 7.08464 46.996 7.70162 47.3932 8.35288C47.8236 9.00414 48.1878 9.68968 48.4857 10.3752C48.7836 11.095 49.0485 11.8148 49.2802 12.5347C49.5119 13.2888 49.6775 14.0086 49.843 14.7969C49.9754 15.551 50.1078 16.3051 50.174 17.0935C50.2402 17.8476 50.2734 18.636 50.2734 19.39C50.2734 20.1441 50.2402 20.9325 50.174 21.6866C50.1078 22.4407 50.0085 23.2291 49.843 23.9832C49.545 25.4913 49.1147 26.9995 48.4857 28.4049C48.1878 29.1247 47.7905 29.7759 47.3932 30.4272C46.9629 31.0785 46.4994 31.6955 45.9697 32.2439C45.8373 32.381 45.7049 32.5181 45.5394 32.6552C45.4732 32.7238 45.407 32.7923 45.3076 32.8609L45.0759 33.0323L44.9766 33.1351L44.8442 33.2036L44.6124 33.375C44.5131 33.4093 44.4469 33.4779 44.3476 33.5121L44.2152 33.5807C44.1821 33.615 44.1159 33.615 44.0828 33.6492L43.8179 33.7863L43.5531 33.8892C43.52 33.8892 43.4538 33.9235 43.4207 33.9235L43.2883 33.9577L43.1558 33.992C43.1227 33.992 43.0565 34.0263 43.0234 34.0263L42.7255 34.0948C42.6924 34.0948 42.6924 34.0948 42.6593 34.0948H42.5931L42.4606 34.1291L42.3282 34.1634C42.2951 34.1634 42.2289 34.1634 42.1958 34.1634L41.8979 34.0263ZM41.8979 33.4436H42.1627C42.1958 33.4436 42.262 33.4436 42.2951 33.4436L42.4275 33.4093L42.56 33.375H42.6262C42.6593 33.375 42.6593 33.375 42.6924 33.375L42.9572 33.3065C42.9903 33.3065 43.0234 33.2722 43.0896 33.2722L43.222 33.2379L43.3545 33.2036C43.3876 33.2036 43.4207 33.1694 43.4869 33.1694L43.7186 33.0665L43.9504 32.9637C43.9835 32.9294 44.0166 32.9294 44.0828 32.8952L44.1821 32.8266C44.2483 32.7923 44.3476 32.7238 44.4138 32.6895L44.6456 32.5524L44.7449 32.4838L44.8442 32.4153L45.0428 32.2439C45.109 32.1753 45.1752 32.1411 45.2414 32.0725C45.3739 31.9697 45.5063 31.8326 45.6387 31.6955C46.1353 31.1813 46.5656 30.5986 46.9298 29.9816C47.2939 29.3646 47.625 28.7134 47.9229 28.0278C48.2209 27.3423 48.4526 26.6568 48.6512 25.9369C48.7505 25.5942 48.8498 25.2171 48.9161 24.8744L49.0485 24.3259C49.0816 24.1545 49.1147 23.9489 49.1478 23.7775C49.2802 23.0577 49.3795 22.3036 49.4457 21.5838C49.5119 20.8297 49.5451 20.1099 49.5451 19.3558C49.5451 18.6017 49.5119 17.8819 49.4457 17.1278C49.3795 16.3737 49.2802 15.6539 49.1478 14.934C49.1147 14.7627 49.0816 14.557 49.0485 14.3856L48.9161 13.8372C48.8167 13.4601 48.7505 13.1174 48.6512 12.7746C48.4526 12.0548 48.2209 11.3693 47.9229 10.6837C47.625 9.99818 47.2939 9.34691 46.9298 8.72993C46.5656 8.11294 46.1353 7.53024 45.6387 7.01608C45.5063 6.87898 45.407 6.74187 45.2414 6.63904C45.1752 6.57048 45.109 6.50193 45.0428 6.46765L44.8442 6.29627L44.7449 6.22772L44.6456 6.15916L44.4138 6.02205C44.3476 5.98778 44.2483 5.91922 44.1821 5.88495L44.0828 5.81639C44.0497 5.78211 44.0166 5.78212 43.9504 5.74784L43.7186 5.64501L43.4869 5.54218C43.4538 5.54218 43.4207 5.5079 43.3545 5.5079L43.222 5.47362L43.0896 5.43935C43.0565 5.43935 43.0234 5.40507 42.9572 5.40507L42.6924 5.33651C42.6593 5.33651 42.6593 5.33651 42.6262 5.33651H42.56L42.4275 5.30224L42.2951 5.26796C42.262 5.26796 42.1958 5.26796 42.1627 5.26796H41.8979H41.633C41.5999 5.26796 41.5337 5.26796 41.5006 5.26796H41.3682H41.2358H41.1696C41.1365 5.26796 41.1365 5.26796 41.1033 5.26796L40.8385 5.33651C40.8054 5.33651 40.7392 5.37079 40.7061 5.37079L40.5737 5.40507L40.4413 5.43935C40.4082 5.43935 40.375 5.47362 40.3088 5.47362L40.0771 5.57645L39.8454 5.67928C39.8123 5.71356 39.7792 5.71356 39.713 5.74784L39.6136 5.81639C39.5474 5.85067 39.4481 5.91922 39.3819 5.9535L39.1502 6.09061L39.0509 6.15916L38.9515 6.22772L38.7529 6.3991C38.6867 6.46765 38.6205 6.50193 38.5543 6.57048C38.4219 6.67332 38.2894 6.81042 38.157 6.94753C37.6274 7.46168 37.197 8.04439 36.7997 8.66138C36.4025 9.27836 36.0383 9.92962 35.7404 10.6152C35.4424 11.3007 35.1776 11.9862 34.979 12.706C34.7472 13.4259 34.5817 14.1457 34.4493 14.8998C34.3169 15.6539 34.2176 16.3737 34.1514 17.1278C34.0852 17.8819 34.052 18.636 34.052 19.39C34.052 20.1441 34.0852 20.8982 34.1514 21.6523C34.2176 22.4064 34.3169 23.1605 34.4493 23.8803C34.7141 25.3542 35.1445 26.7939 35.7735 28.1649C36.0714 28.8505 36.4356 29.5017 36.8328 30.1187C37.2301 30.7357 37.6936 31.3184 38.1901 31.8326C38.3226 31.9697 38.455 32.0725 38.5874 32.2096C38.6536 32.2782 38.7198 32.3124 38.786 32.381L38.9846 32.5524L39.084 32.6209L39.1833 32.6895L39.415 32.8266C39.4812 32.8609 39.5805 32.9294 39.6467 32.9637L39.7461 33.0323C39.7792 33.0665 39.8123 33.0665 39.8785 33.1008L40.1102 33.2036L40.3419 33.3065C40.375 33.3065 40.4081 33.3407 40.4744 33.3407L40.6068 33.375L40.7392 33.4093C40.7723 33.4093 40.8054 33.4436 40.8716 33.4436L41.1365 33.5121C41.1696 33.5121 41.1696 33.5121 41.2027 33.5121H41.2689H41.4013H41.5337C41.5668 33.5121 41.633 33.5121 41.6661 33.5121L41.8979 33.4436Z" fill="white"/>
<path d="M41.1327 37.8567H29.0702C22.5976 37.8567 17.3672 29.3762 17.3672 18.9283C17.3672 8.48044 22.6303 0 29.0702 0H41.1327C34.6601 0 29.4297 8.48044 29.4297 18.9283C29.4297 29.3762 34.6601 37.8567 41.1327 37.8567Z" fill="#FF7931"/>
<path d="M30.7843 27.8068C30.4578 26.8222 30.1967 25.7697 29.9681 24.7172C29.8049 23.8005 29.6417 22.8838 29.5438 21.9331C29.4458 21.0164 29.4132 20.0997 29.4132 19.149C29.4132 19.0811 29.4132 19.0132 29.4132 18.9453C29.4132 18.0286 29.4458 17.1119 29.5438 16.1952C29.6417 15.0069 29.8376 13.8864 30.0661 12.766C30.9801 8.42014 32.8735 4.78726 35.2893 2.51246C35.9095 1.93528 36.5951 1.42599 37.2806 1.05252C37.8356 0.746948 38.4232 0.475331 39.0108 0.30557C39.5658 0.135809 40.1534 0.0339522 40.741 0C40.8716 0 41.0021 0 41.1327 0H29.0867C28.9561 0 28.8256 0 28.695 0C28.1074 0.0339522 27.5524 0.135809 26.9648 0.30557C26.3772 0.475331 25.7896 0.746948 25.2346 1.05252C24.5491 1.45994 23.8635 1.93528 23.2433 2.51246C20.8276 4.78726 18.9341 8.42014 18.0201 12.766C17.7916 13.8525 17.6283 15.0069 17.4978 16.1952C17.4325 17.078 17.3672 17.9947 17.3672 18.9453C17.3672 19.0132 17.3672 19.0811 17.3672 19.149C17.3672 20.0997 17.4325 21.0164 17.4978 21.9331C17.5957 22.8838 17.7263 23.8344 17.9222 24.7172C18.1507 25.8037 18.4118 26.8222 18.7383 27.8068C20.697 33.7824 24.5817 37.8567 29.0541 37.8567H41.1001C36.6277 37.8567 32.743 33.7824 30.7843 27.8068Z" fill="#FF7931"/>
<path d="M41.9561 38.1447C41.7196 38.1447 41.4492 38.1447 41.2126 38.1105C39.4214 38.008 37.6303 38.0764 35.8391 38.0422C35.5349 38.008 35.2646 37.9396 34.9942 37.8371C36.9206 37.9055 38.3738 37.9396 40.3677 37.9738C40.1312 37.9396 39.8946 37.8713 39.658 37.8029C39.5228 37.7687 39.2863 37.8029 39.1511 37.8029C37.0557 37.7346 35.0618 37.6662 34.3183 37.632C34.0479 37.5295 33.7775 37.3928 33.5072 37.256C35.4335 37.3586 36.8868 37.4269 38.8469 37.4953C38.6103 37.3928 38.3738 37.2902 38.171 37.1535C38.0358 37.1193 37.7992 37.1193 37.6641 37.1193C35.5687 37.0168 33.5072 36.8801 32.865 36.8459C32.5947 36.675 32.3581 36.5041 32.0877 36.3332C33.9803 36.4699 35.4673 36.5724 37.3937 36.675C37.1909 36.5383 36.9543 36.3674 36.7516 36.2306C36.6164 36.1623 36.4136 36.1965 36.2446 36.1965C34.1831 36.0597 32.1215 35.8888 31.4456 35.8547C31.2091 35.6496 30.9725 35.4103 30.7359 35.2052C32.6285 35.3761 34.0479 35.4787 36.0081 35.6496C35.8053 35.4787 35.6025 35.2736 35.3997 35.0685C35.2646 35.0002 35.0618 35.0343 34.8928 35.0343C32.8313 34.8634 30.9387 34.6584 30.1276 34.59C29.891 34.3507 29.6882 34.0773 29.4855 33.8039C31.6146 34.0089 33.1354 34.1798 34.7238 34.3166C34.521 34.1115 34.3521 33.8722 34.1831 33.633C32.0202 33.3937 30.7359 33.257 28.9785 33.0861C28.7757 32.7785 28.573 32.4708 28.404 32.1632C30.5331 32.4025 32.0202 32.5734 33.5748 32.7785C33.4058 32.5392 33.2368 32.2658 33.1016 31.9923C30.9725 31.7531 29.6544 31.5822 27.9309 31.3429C27.7619 31.0011 27.5929 30.6593 27.4239 30.3175C29.2151 30.5568 30.7359 30.7618 32.5609 31.0011C32.4257 30.7277 32.2905 30.42 32.1553 30.1124C30.06 29.839 28.7758 29.6681 27.0522 29.3946C26.917 29.0187 26.748 28.6427 26.6128 28.2667C28.404 28.5401 29.8572 28.7452 31.6822 29.0187C31.547 28.711 31.4456 28.3692 31.3442 28.0616C29.2827 27.754 27.9309 27.5489 26.3087 27.3097C26.1735 26.8995 26.0721 26.5235 25.9707 26.1134C27.7957 26.421 29.1137 26.6261 30.9725 26.8995C30.8711 26.5577 30.8035 26.2159 30.7021 25.8741C28.9447 25.6007 27.5591 25.3614 25.7003 25.0538C25.5989 24.6436 25.5313 24.1993 25.4638 23.7549C27.3901 24.0967 28.4378 24.2676 30.4317 24.6094C30.3642 24.2335 30.2966 23.8917 30.2628 23.5157C28.235 23.1739 27.0522 22.9688 25.3286 22.6612C25.261 22.2169 25.2272 21.7725 25.1934 21.3282C27.2887 21.7042 28.2012 21.8751 30.06 22.2169C30.0262 21.8409 29.9924 21.4649 29.9586 21.0889C27.9309 20.7129 26.7818 20.5079 25.1258 20.2002C25.1258 19.8584 25.1258 19.5508 25.1258 19.209C25.1258 19.0723 25.1258 18.9356 25.1258 18.7989C29.1475 19.5508 29.1475 19.5508 29.9248 19.7217C29.9248 19.5508 29.9248 19.3799 29.9248 19.209C29.9248 18.9698 29.9248 18.7647 29.9248 18.5254C28.9447 18.3545 26.2411 17.8418 25.1596 17.6367C25.1934 17.1924 25.2272 16.7139 25.261 16.2695C27.1198 16.6113 28.5054 16.8848 29.9924 17.1582C30.0262 16.7822 30.06 16.4063 30.0938 16.0303C28.066 15.6543 27.1536 15.4834 25.3962 15.1758C25.4638 14.7314 25.5313 14.2871 25.5989 13.8769C25.6327 13.706 25.6665 13.501 25.7003 13.3301C25.6665 13.501 25.6327 13.6719 25.5989 13.8769C27.6267 14.2529 28.2688 14.3555 30.2628 14.7314C30.3304 14.3555 30.398 14.0137 30.4655 13.6377C28.8095 13.3301 27.4915 13.0908 25.8355 12.8174C25.9369 12.4072 26.0383 11.997 26.1397 11.5869C28.0322 11.9287 28.9447 12.0654 30.7359 12.373C30.8373 12.0312 30.9049 11.6894 31.0063 11.3476C29.4855 11.0742 27.9646 10.8349 26.4438 10.5615C26.579 10.1855 26.7142 9.77535 26.8494 9.39937C28.7082 9.70699 29.8572 9.87789 31.378 10.1513C31.4794 9.84371 31.6146 9.50191 31.716 9.19429C29.7558 8.88667 28.3364 8.64741 27.1873 8.47651C27.3563 8.10053 27.4915 7.75873 27.6943 7.41693C29.5531 7.69037 30.5331 7.86127 32.1891 8.10053C32.3243 7.79291 32.4595 7.51947 32.6285 7.21185C30.7697 6.93841 29.6206 6.76751 28.1674 6.56243C28.3364 6.22063 28.5392 5.91301 28.742 5.60539C28.8095 5.46867 28.9109 5.36613 28.9785 5.22941C28.8771 5.36613 28.8095 5.46867 28.742 5.60539C30.5669 5.84465 31.6484 6.01555 33.1692 6.22063C33.3382 5.94719 33.5072 5.70793 33.6424 5.43449C31.8174 5.19523 30.6007 5.02433 29.2151 4.85343C29.4179 4.57999 29.6206 4.30655 29.8572 4.03311C31.6484 4.23819 32.7637 4.37491 34.2507 4.54581C34.4197 4.30655 34.6224 4.06729 34.7914 3.86221C33.0002 3.65714 31.7498 3.52041 30.4317 3.38369C30.6683 3.14444 30.9049 2.90518 31.1415 2.7001C32.9326 2.871 34.0479 3.00771 35.5011 3.14443C35.7039 2.93935 35.9067 2.76846 36.1095 2.56338C34.3183 2.39248 33.1354 2.28994 31.7836 2.15322C32.0202 1.94814 32.2905 1.77724 32.5271 1.60634C34.2845 1.74306 35.3659 1.8456 36.853 1.94814C37.0557 1.77724 37.2923 1.64052 37.4951 1.5038C35.7377 1.36708 34.5886 1.29872 33.203 1.19618C33.4734 1.05946 33.7437 0.922738 34.0141 0.786019C35.7715 0.888558 36.853 0.956917 38.3062 1.02528C38.5428 0.922737 38.7455 0.786017 38.9821 0.717657C37.2247 0.615117 36.0757 0.580938 34.7238 0.512578C34.9942 0.410038 35.2984 0.341679 35.5687 0.273319C37.3261 0.307499 38.4076 0.375857 39.827 0.410037C40.0636 0.341677 40.3001 0.273317 40.5367 0.239137C38.7793 0.204957 37.6641 0.170779 36.2784 0.136599C36.5826 0.102419 36.9206 0.0682373 37.2247 0.0682373H36.177C29.4855 0.0682373 24.0781 8.61323 24.0781 19.1407C24.0781 29.6681 29.5193 38.2131 36.177 38.2131H37.2247L36.6502 38.1789C38.7793 38.1447 40.2663 38.1447 41.9561 38.1447Z" fill="#48494D"/>
<path d="M22.9629 19.0724C22.9629 8.545 28.4041 0 35.0618 0H34.0142C33.6762 0 33.3383 0.0341789 33.0341 0.0683589C30.8374 0.102539 29.3503 0.13672 27.9647 0.1709C27.7281 0.20508 27.4916 0.27344 27.255 0.3418C29.6545 0.27344 31.3781 0.239259 32.2906 0.205079C32.0202 0.273439 31.7161 0.341801 31.4457 0.444341C29.249 0.512701 27.6944 0.58106 26.4101 0.64942C26.1735 0.75196 25.937 0.854501 25.7342 0.95704C27.8295 0.854501 29.3841 0.786139 30.736 0.717779C30.4656 0.854499 30.1952 0.95704 29.9249 1.12794C27.7619 1.23048 26.2073 1.33302 24.9231 1.40138C24.7203 1.5381 24.4837 1.67482 24.281 1.84572C26.4777 1.709 27.8971 1.60646 29.2828 1.50392C29.0124 1.67482 28.7758 1.84572 28.5392 2.0508C26.3763 2.2217 24.8893 2.32424 23.5713 2.42678C23.3685 2.59768 23.1657 2.80276 22.9629 3.00784C25.1259 2.80276 26.6129 2.70022 27.9309 2.59768C27.6944 2.80276 27.4578 3.04202 27.2212 3.28128C25.0921 3.48636 23.5375 3.62308 22.287 3.7598C22.0842 3.96488 21.9153 4.20414 21.7463 4.4434C23.9092 4.20414 25.3624 4.06742 26.6467 3.9307C26.4439 4.20414 26.2073 4.47758 26.0046 4.75102C23.8754 4.99028 22.4898 5.127 21.1042 5.2979C20.9352 5.53716 20.7662 5.8106 20.631 6.08404C22.6588 5.84478 24.1796 5.67388 25.4976 5.50298C25.2948 5.8106 25.1259 6.11822 24.9231 6.46002C22.7939 6.73346 21.5773 6.87017 20.0903 7.07525C19.9551 7.34869 19.7861 7.65632 19.6509 7.96394C21.7801 7.6905 23.1319 7.48542 24.4837 7.31452C24.3148 7.65632 24.1458 7.99812 24.0106 8.37409C21.9153 8.64753 20.4958 8.85261 19.2116 9.05769C19.0764 9.36531 18.975 9.67294 18.8736 10.0147C20.8676 9.70712 22.4222 9.50204 23.6388 9.33114C23.5037 9.70712 23.3685 10.0831 23.2333 10.4933C21.0028 10.8351 19.313 11.1085 18.5019 11.211C18.4005 11.5528 18.2991 11.8946 18.2315 12.2364C20.2255 11.9288 21.7125 11.6896 22.9629 11.4845C22.8615 11.8946 22.7602 12.3048 22.6588 12.715C20.631 13.0568 19.2454 13.2618 17.9611 13.5011C17.8936 13.8429 17.826 14.2189 17.7584 14.5949C19.9889 14.2189 21.6111 13.9454 22.4222 13.8087C22.3546 14.253 22.287 14.6632 22.2194 15.1075C20.2255 15.4493 18.9412 15.6886 17.5894 15.9279C17.5556 16.3039 17.5218 16.6798 17.488 17.0558C19.6847 16.6456 21.4759 16.338 22.0842 16.2355C22.0504 16.6798 22.0166 17.1242 21.9829 17.6027C19.8537 18.0128 18.1639 18.3205 17.4204 18.4572C17.4204 18.6964 17.4204 18.9015 17.4204 19.1408C17.4204 19.3117 17.4204 19.4826 17.4204 19.6535C18.9412 19.38 20.4282 19.0724 21.9491 18.799C21.9491 18.9015 21.9491 19.0382 21.9491 19.1408C21.9491 19.4826 21.9491 19.8586 21.9829 20.2004C19.7861 20.6105 18.0625 20.9523 17.488 21.0549C17.5218 21.4308 17.5556 21.8068 17.5894 22.1828C18.9412 21.9435 20.4282 21.6701 22.0504 21.3625C22.0842 21.8068 22.118 22.2512 22.1856 22.6955C21.3745 22.8322 19.7523 23.1398 17.7584 23.5158C17.826 23.8918 17.8598 24.2336 17.9273 24.6096C19.9551 24.2336 21.3745 23.9943 22.3208 23.8234C22.3884 24.2678 22.456 24.6779 22.5574 25.1223C20.462 25.4983 18.7722 25.8059 18.1977 25.8742C18.2653 26.216 18.3667 26.5578 18.4681 26.8996C20.462 26.5578 21.9153 26.3186 22.794 26.1477C22.8953 26.5578 22.9967 26.968 23.1319 27.344C21.2055 27.6516 20.1917 27.8225 18.8398 28.0618C18.9412 28.4036 19.0764 28.7112 19.1778 29.0188C21.1718 28.7112 22.5236 28.4719 23.4361 28.3352C23.5713 28.7112 23.7064 29.0872 23.8754 29.4631C22.0166 29.7708 20.7662 29.9417 19.6509 30.1126C19.7861 30.4202 19.9213 30.6936 20.0565 31.0012C22.0166 30.6936 23.4361 30.4885 24.281 30.3518C24.4499 30.6936 24.6189 31.0354 24.7879 31.3772C24.8555 31.5139 24.9231 31.6507 25.0245 31.7874C24.9569 31.6507 24.8555 31.5139 24.7879 31.3772C22.9291 31.6507 21.6449 31.8216 20.5972 31.9925C20.7662 32.2659 20.9014 32.5393 21.0704 32.7786C23.0305 32.5052 24.4499 32.3343 25.2273 32.1975C25.43 32.5052 25.599 32.8128 25.8018 33.1204C24.0782 33.3597 22.794 33.4964 21.6449 33.6331C21.8139 33.8724 22.0166 34.1116 22.1856 34.3167C23.9768 34.1116 25.1935 33.9749 26.3087 33.8382C26.5115 34.1116 26.7481 34.3851 26.9508 34.6243C25.1597 34.8294 23.9768 34.9661 22.8615 35.0687C23.0643 35.2737 23.2671 35.4788 23.4699 35.6497C25.2273 35.4788 26.5115 35.3421 27.5592 35.2396C27.7957 35.4788 28.0323 35.6839 28.2689 35.889C28.3365 35.9232 28.3703 35.9915 28.4379 36.0257C28.3703 35.9915 28.3365 35.9232 28.2689 35.889C26.4777 36.0599 25.2948 36.1624 24.2134 36.265C24.4162 36.4359 24.6527 36.5726 24.8555 36.7093C26.6129 36.5726 27.8633 36.47 28.911 36.3675C29.1476 36.5384 29.4179 36.7093 29.6883 36.8802C27.7619 37.0169 26.3763 37.1195 25.6666 37.1536C25.9032 37.2562 26.1059 37.3929 26.3425 37.4954C28.0999 37.3929 29.3503 37.3245 30.3642 37.2562C30.6346 37.3929 30.905 37.4954 31.1753 37.6322C29.2828 37.7347 27.8633 37.7689 27.1536 37.8031C27.3902 37.8714 27.6268 37.9398 27.8633 37.974C29.5869 37.9398 30.8036 37.8714 31.8512 37.8372C32.1216 37.9056 32.4258 37.974 32.6961 38.0423C30.8036 38.0765 29.4517 38.1107 28.7082 38.1107C28.9448 38.1449 29.2152 38.1449 29.4517 38.1449H29.4855C31.3443 38.1449 32.6623 38.1449 33.4396 38.1107C33.6086 38.1107 33.8114 38.1449 33.9804 38.1449H35.0281C28.3703 38.1449 22.9629 29.5999 22.9629 19.0724Z" fill="#48494D"/>
<path d="M60.2599 12.1407C63.0698 10.7809 64.0854 7.85722 64.1192 7.68724L64.5255 6.46338H45.7026L46.7183 7.92521C47.5985 9.21706 48.3094 10.6449 48.7834 12.1407L48.9526 12.6847L49.088 13.2966C49.3927 14.5884 49.562 15.9483 49.562 17.2741C49.562 17.3421 49.562 17.4441 49.562 17.5121V18.056L49.5281 18.634C49.4266 20.0618 49.088 21.4897 48.6141 22.8495L48.4448 23.3254L48.2417 23.7674C47.5985 25.2972 48.7156 26.7251 47.6323 27.9829L46.3797 29.5467H49.9682H50.0021C54.7078 29.1388 56.2651 24.6513 56.3328 24.4473L56.4344 24.1074H56.4682C61.1739 23.6994 62.7312 19.2119 62.7989 19.0079L63.0698 18.226C66.8276 17.2401 68.0802 13.5006 68.1479 13.3306L68.5541 12.1067H60.2599V12.1407Z" fill="white"/>
<path d="M44.7891 6.46338C45.6787 7.87305 46.4036 9.42369 46.9308 11.0801H64.0978C68.1506 10.6924 69.4686 6.46338 69.4686 6.46338H44.7891Z" fill="#FF7931"/>
<path d="M47.5308 24.0067H57.6577C61.7416 23.619 63.0698 19.39 63.0698 19.39H48.4604C48.3276 21.0111 48.0288 22.5618 47.5308 24.0067Z" fill="#FF7931"/>
<path d="M44.7891 28.6234H52.9267C57.1323 28.3133 58.4999 24.9301 58.4999 24.9301H47.5928C46.8748 26.2551 45.9174 27.5239 44.7891 28.6234Z" fill="#FF7931"/>
<path d="M48.0006 17.2967C48.0006 17.3672 48.0006 17.4729 48.0006 17.5434H61.256C65.3837 17.1558 66.726 12.9268 66.726 12.9268H47.5308C47.8328 14.3012 48.0006 15.7813 48.0006 17.2967Z" fill="#FF7931"/>
</svg>
